<svg width="27" height="24" viewBox="0 0 27 24" fill="none" xmlns="http://www.w3.org/2000/svg">
<path d="M9.75 23H0.99V22.13C1.49 21.91 1.99 21.72 2.49 21.56C3.01 21.38 3.53 21.23 4.05 21.11V6.38L4.17 4.61C3.61 4.83 3.03 4.99 2.43 5.09C1.83 5.17 1.21 5.2 0.57 5.18L0.42 4.46C1.34 4.16 2.29 3.79 3.27 3.35C4.25 2.89 5.16 2.32 6 1.64H6.75V21.11C7.25 21.23 7.75 21.38 8.25 21.56C8.75 21.72 9.25 21.91 9.75 22.13V23ZM25.9261 0.349998H26.6761C26.6561 0.649999 26.6261 0.99 26.5861 1.37C26.5661 1.73 26.5261 2.1 26.4661 2.48C26.4061 2.84 26.3461 3.19 26.2861 3.53C26.2261 3.87 26.1561 4.15 26.0761 4.37H18.6961L17.9761 10.16H19.9261C20.9261 10.16 21.8361 10.3 22.6561 10.58C23.4961 10.84 24.2061 11.24 24.7861 11.78C25.3861 12.3 25.8461 12.94 26.1661 13.7C26.5061 14.46 26.6761 15.33 26.6761 16.31C26.6761 17.47 26.4761 18.49 26.0761 19.37C25.6761 20.25 25.1461 20.99 24.4861 21.59C23.8261 22.17 23.0761 22.61 22.2361 22.91C21.3961 23.21 20.5261 23.36 19.6261 23.36C19.2261 23.36 18.7961 23.32 18.3361 23.24C17.8761 23.18 17.4161 23.08 16.9561 22.94C16.5161 22.8 16.0961 22.64 15.6961 22.46C15.2961 22.26 14.9561 22.05 14.6761 21.83L15.5461 19.13H16.1461C16.2661 19.27 16.4161 19.45 16.5961 19.67C16.7761 19.89 16.9561 20.12 17.1361 20.36C17.3361 20.6 17.5261 20.84 17.7061 21.08C17.9061 21.32 18.0861 21.53 18.2461 21.71C18.4461 21.75 18.6261 21.8 18.7861 21.86C18.9661 21.92 19.2361 21.95 19.5961 21.95C20.2561 21.95 20.8561 21.82 21.3961 21.56C21.9561 21.3 22.4361 20.95 22.8361 20.51C23.2361 20.05 23.5461 19.52 23.7661 18.92C23.9861 18.32 24.0961 17.67 24.0961 16.97C24.0961 16.17 23.9461 15.48 23.6461 14.9C23.3461 14.3 22.9361 13.82 22.4161 13.46C21.8961 13.08 21.2861 12.8 20.5861 12.62C19.9061 12.44 19.1861 12.36 18.4261 12.38L16.2961 12.41L17.4961 2H24.6361L25.9261 0.349998Z" fill="white"/>
</svg>
