<svg width="66" height="23" viewBox="0 0 66 23" fill="none" xmlns="http://www.w3.org/2000/svg">
<path d="M2.99 6.85H2.24C2.02 6.27 1.79 5.59 1.55 4.81C1.33 4.03 1.14 3.29 0.98 2.59C1.68 1.99 2.52 1.52 3.5 1.18C4.48 0.82 5.54 0.64 6.68 0.64C7.68 0.64 8.54 0.78 9.26 1.06C9.98 1.34 10.57 1.72 11.03 2.2C11.51 2.68 11.86 3.24 12.08 3.88C12.3 4.5 12.41 5.15 12.41 5.83C12.41 6.95 12.15 8.1 11.63 9.28C11.11 10.46 10.46 11.61 9.68 12.73C8.92 13.83 8.09 14.87 7.19 15.85C6.29 16.83 5.46 17.69 4.7 18.43L3.44 19.6V19.72L5.12 19.54H10.28L11.75 16.18H12.5C12.54 16.62 12.58 17.1 12.62 17.62C12.66 18.14 12.69 18.67 12.71 19.21C12.75 19.73 12.78 20.24 12.8 20.74C12.82 21.22 12.83 21.64 12.83 22H0.44V21.04C0.88 20.58 1.41 20.02 2.03 19.36C2.67 18.7 3.33 17.97 4.01 17.17C4.69 16.37 5.36 15.52 6.02 14.62C6.7 13.72 7.3 12.81 7.82 11.89C8.34 10.95 8.76 10.02 9.08 9.1C9.42 8.18 9.59 7.3 9.59 6.46C9.59 5.88 9.51 5.33 9.35 4.81C9.21 4.29 8.99 3.84 8.69 3.46C8.39 3.06 8.02 2.75 7.58 2.53C7.16 2.31 6.67 2.2 6.11 2.2C5.69 2.2 5.32 2.23 5 2.29C4.68 2.35 4.33 2.44 3.95 2.56L2.99 6.85ZM16.0461 11.5C16.0461 7.9 16.6461 5.19 17.8461 3.37C19.0461 1.55 20.7661 0.64 23.0061 0.64C25.4261 0.64 27.1961 1.54 28.3161 3.34C29.4361 5.12 29.9961 7.84 29.9961 11.5C29.9961 15.1 29.3861 17.81 28.1661 19.63C26.9661 21.45 25.1861 22.36 22.8261 22.36C21.6061 22.36 20.5661 22.12 19.7061 21.64C18.8461 21.14 18.1461 20.43 17.6061 19.51C17.0661 18.57 16.6661 17.43 16.4061 16.09C16.1661 14.75 16.0461 13.22 16.0461 11.5ZM18.9261 11.5C18.9261 12.94 18.9961 14.25 19.1361 15.43C19.2761 16.61 19.4961 17.63 19.7961 18.49C20.1161 19.33 20.5161 19.98 20.9961 20.44C21.4961 20.9 22.0961 21.13 22.7961 21.13C24.3761 21.13 25.4861 20.35 26.1261 18.79C26.7861 17.23 27.1161 14.8 27.1161 11.5C27.1161 10.06 27.0561 8.75 26.9361 7.57C26.8161 6.39 26.5961 5.38 26.2761 4.54C25.9561 3.7 25.5261 3.05 24.9861 2.59C24.4661 2.13 23.8061 1.9 23.0061 1.9C21.5061 1.9 20.4461 2.68 19.8261 4.24C19.2261 5.78 18.9261 8.2 18.9261 11.5ZM42.4522 0.999999H49.0822V1.87C48.6822 2.05 48.2922 2.2 47.9122 2.32C47.5322 2.44 47.1622 2.54 46.8022 2.62L40.7722 10.6C41.2722 11.26 41.8422 12 42.4822 12.82C43.1422 13.64 43.8222 14.49 44.5222 15.37C45.2422 16.23 45.9722 17.11 46.7122 18.01C47.4722 18.89 48.2122 19.73 48.9322 20.53L50.3722 21.25V22H46.6222L45.6022 21.28C44.4222 19.9 43.2422 18.41 42.0622 16.81C40.9022 15.21 39.7722 13.59 38.6722 11.95H37.2022V20.41C38.1222 20.57 38.8722 20.81 39.4522 21.13V22H31.8622V21.13C32.6622 20.81 33.4822 20.57 34.3222 20.41V2.62C33.4222 2.5 32.6022 2.25 31.8622 1.87V0.999999H39.4522V1.87C39.1322 2.01 38.7822 2.15 38.4022 2.29C38.0222 2.41 37.6222 2.52 37.2022 2.62V10.93L39.0022 10.51L44.6122 2.62C44.2122 2.52 43.8322 2.41 43.4722 2.29C43.1122 2.17 42.7722 2.03 42.4522 1.87V0.999999ZM51.6467 10.9H57.5867V4.6H59.1767V10.9H65.1167V12.49H59.1767V18.94H57.5867V12.49H51.6467V10.9Z" fill="white"/>
</svg>
